<svg width="1020" height="363" viewBox="0 0 1020 363" fill="none" xmlns="http://www.w3.org/2000/svg">
<path d="M336.902 264.347C336.902 314.965 295.868 355.999 245.25 355.999H15.6076C11.0096 355.999 8.8493 350.315 12.2865 347.261L187.846 191.265C202.784 180.7 225.562 172.695 245.25 172.695C295.868 172.695 336.902 213.729 336.902 264.347Z" fill="black"/>
<path d="M1.41851 97.4966C1.98985 46.8817 43.4845 6.31345 94.0994 6.88479L323.727 9.47684C328.325 9.52874 330.421 15.2363 326.949 18.2514L149.64 172.256C134.584 182.652 111.717 190.4 92.0303 190.177C41.4155 189.606 0.847167 148.111 1.41851 97.4966Z" fill="black"/>
<path d="M368.913 13.3677C368.913 8.74368 374.65 6.5974 377.685 10.0862L531.025 186.369C532.502 188.068 532.663 190.544 531.416 192.419L461.006 298.325L715.595 15.258C718.66 11.8503 724.312 14.0184 724.312 18.6016V350.999C724.312 353.76 722.074 355.999 719.312 355.999H557.87C553.889 355.999 551.505 351.573 553.695 348.248L623.341 242.531L522.743 354.343C521.795 355.397 520.444 355.999 519.026 355.999H373.913C371.151 355.999 368.913 353.76 368.913 350.999V13.3677Z" fill="black" stroke="black"/>
<path d="M1019.62 114.45C1019.62 174.428 968.273 223.049 904.938 223.049H761.323C758.562 223.049 756.323 220.811 756.323 218.049V10.8503C756.323 8.08886 758.562 5.85028 761.323 5.85028H904.938C968.273 5.85028 1019.62 54.4719 1019.62 114.45Z" fill="black"/>
<path d="M764.523 276.599C762.923 276.599 761.377 276.452 759.883 276.159C758.417 275.892 757.23 275.519 756.323 275.039L757.083 271.359C759.403 272.559 762.043 273.159 765.003 273.159C769.163 273.159 771.537 271.759 772.123 268.959C772.203 268.559 772.243 268.212 772.243 267.919C772.243 267.226 772.043 266.639 771.643 266.159C771.243 265.679 770.67 265.252 769.923 264.879C769.203 264.479 768.07 263.946 766.523 263.279C764.55 262.452 763.07 261.506 762.083 260.439C761.123 259.372 760.643 258.119 760.643 256.679C760.643 256.172 760.71 255.586 760.843 254.919C761.297 252.652 762.51 250.839 764.483 249.479C766.457 248.119 768.937 247.439 771.923 247.439C773.443 247.439 774.79 247.559 775.963 247.799C777.163 248.039 778.283 248.426 779.323 248.959L778.563 252.479C776.483 251.439 774.257 250.919 771.883 250.919C769.963 250.919 768.417 251.266 767.243 251.959C766.097 252.652 765.39 253.639 765.123 254.919C765.043 255.266 765.003 255.586 765.003 255.879C765.003 256.839 765.39 257.626 766.163 258.239C766.963 258.826 768.377 259.572 770.403 260.479C772.617 261.439 774.217 262.386 775.203 263.319C776.19 264.252 776.683 265.479 776.683 266.999C776.683 267.586 776.603 268.239 776.443 268.959C775.937 271.412 774.697 273.306 772.723 274.639C770.75 275.946 768.017 276.599 764.523 276.599ZM790.61 251.479H781.93L782.65 248.039H804.13L803.41 251.479H794.73L789.53 275.999H785.41L790.61 251.479ZM813.006 276.599C809.94 276.599 807.58 275.879 805.926 274.439C804.3 272.972 803.486 270.959 803.486 268.399C803.486 267.572 803.593 266.626 803.806 265.559L807.526 248.039H811.606L807.846 265.719C807.66 266.546 807.566 267.346 807.566 268.119C807.566 269.772 808.073 270.986 809.086 271.759C810.126 272.532 811.7 272.919 813.806 272.919C816.1 272.919 818.033 272.319 819.606 271.119C821.206 269.892 822.26 268.092 822.766 265.719L826.526 248.039H830.606L826.886 265.559C825.34 272.919 820.713 276.599 813.006 276.599ZM835.617 248.039H844.617C848.484 248.039 851.47 248.999 853.577 250.919C855.684 252.839 856.737 255.439 856.737 258.719C856.737 259.679 856.63 260.732 856.417 261.879C855.537 266.572 853.523 270.106 850.377 272.479C847.257 274.826 843.177 275.999 838.137 275.999H829.697L835.617 248.039ZM838.817 272.599C842.55 272.599 845.537 271.679 847.777 269.839C850.044 267.999 851.55 265.346 852.297 261.879C852.537 260.706 852.657 259.626 852.657 258.639C852.657 253.866 849.75 251.479 843.937 251.479H838.977L834.497 272.599H838.817ZM863.742 248.039H882.182L881.462 251.479H867.102L865.222 260.319H875.942L875.222 263.719H864.502L862.622 272.599H876.982L876.262 275.999H857.822L863.742 248.039ZM886.398 248.039H890.278L900.038 269.119L904.518 248.039H908.638L902.718 275.999H898.798L889.038 254.919L884.558 275.999H880.478L886.398 248.039ZM920.18 251.479H911.5L912.22 248.039H933.7L932.98 251.479H924.3L919.1 275.999H914.98L920.18 251.479ZM762.843 288.039H766.803L772.123 309.839L786.723 288.039H790.923L785.003 315.999H781.043L785.243 296.119L771.963 315.999H769.963L765.043 296.119L760.843 315.999H756.923L762.843 288.039ZM796.125 288.039H814.565L813.845 291.479H799.485L797.605 300.319H808.325L807.605 303.719H796.885L795.005 312.599H809.365L808.645 315.999H790.205L796.125 288.039ZM818.781 288.039H822.661L832.421 309.119L836.901 288.039H841.021L835.101 315.999H831.181L821.421 294.919L816.941 315.999H812.861L818.781 288.039ZM852.563 291.479H843.883L844.603 288.039H866.083L865.363 291.479H856.683L851.483 315.999H847.363L852.563 291.479ZM875.332 316.599C873.092 316.599 871.052 316.132 869.212 315.199C867.398 314.266 865.972 312.946 864.932 311.239C863.892 309.506 863.372 307.519 863.372 305.279C863.372 304.239 863.492 303.159 863.732 302.039C864.345 299.159 865.505 296.612 867.212 294.399C868.918 292.186 871.012 290.479 873.492 289.279C875.972 288.052 878.652 287.439 881.532 287.439C883.825 287.439 885.879 287.906 887.692 288.839C889.532 289.772 890.959 291.092 891.972 292.799C893.012 294.506 893.532 296.492 893.532 298.759C893.532 299.772 893.412 300.866 893.172 302.039C892.559 304.919 891.399 307.466 889.692 309.679C888.012 311.866 885.932 313.572 883.452 314.799C880.972 315.999 878.265 316.599 875.332 316.599ZM876.132 312.919C878.105 312.919 879.985 312.479 881.772 311.599C883.585 310.692 885.132 309.426 886.412 307.799C887.692 306.146 888.572 304.226 889.052 302.039C889.265 301.079 889.372 300.066 889.372 298.999C889.372 296.546 888.625 294.639 887.132 293.279C885.665 291.892 883.532 291.199 880.732 291.199C878.732 291.199 876.839 291.652 875.052 292.559C873.265 293.439 871.732 294.706 870.452 296.359C869.172 297.986 868.305 299.879 867.852 302.039C867.612 303.106 867.492 304.106 867.492 305.039C867.492 307.519 868.238 309.452 869.732 310.839C871.252 312.226 873.385 312.919 876.132 312.919ZM900.539 288.039H911.779C914.205 288.039 916.099 288.612 917.459 289.759C918.819 290.879 919.499 292.439 919.499 294.439C919.499 295.106 919.419 295.799 919.259 296.519C918.805 298.626 917.899 300.386 916.539 301.799C915.205 303.212 913.445 304.159 911.259 304.639L915.019 315.999H910.779L907.139 304.959H901.019L898.699 315.999H894.619L900.539 288.039ZM908.219 301.519C910.005 301.519 911.512 301.106 912.739 300.279C913.992 299.426 914.792 298.172 915.139 296.519C915.272 295.959 915.339 295.372 915.339 294.759C915.339 293.559 914.952 292.719 914.179 292.239C913.432 291.732 912.272 291.479 910.699 291.479H903.899L901.739 301.519H908.219ZM927.141 316.599C925.541 316.599 923.994 316.452 922.501 316.159C921.034 315.892 919.847 315.519 918.941 315.039L919.701 311.359C922.021 312.559 924.661 313.159 927.621 313.159C931.781 313.159 934.154 311.759 934.741 308.959C934.821 308.559 934.861 308.212 934.861 307.919C934.861 307.226 934.661 306.639 934.261 306.159C933.861 305.679 933.287 305.252 932.541 304.879C931.821 304.479 930.687 303.946 929.141 303.279C927.167 302.452 925.687 301.506 924.701 300.439C923.741 299.372 923.261 298.119 923.261 296.679C923.261 296.172 923.327 295.586 923.461 294.919C923.914 292.652 925.127 290.839 927.101 289.479C929.074 288.119 931.554 287.439 934.541 287.439C936.061 287.439 937.407 287.559 938.581 287.799C939.781 288.039 940.901 288.426 941.941 288.959L941.181 292.479C939.101 291.439 936.874 290.919 934.501 290.919C932.581 290.919 931.034 291.266 929.861 291.959C928.714 292.652 928.007 293.639 927.741 294.919C927.661 295.266 927.621 295.586 927.621 295.879C927.621 296.839 928.007 297.626 928.781 298.239C929.581 298.826 930.994 299.572 933.021 300.479C935.234 301.439 936.834 302.386 937.821 303.319C938.807 304.252 939.301 305.479 939.301 306.999C939.301 307.586 939.221 308.239 939.061 308.959C938.554 311.412 937.314 313.306 935.341 314.639C933.367 315.946 930.634 316.599 927.141 316.599ZM947.882 288.039H951.962L949.402 300.039H964.002L966.562 288.039H970.642L964.722 315.999H960.642L963.282 303.479H948.682L946.042 315.999H941.962L947.882 288.039ZM975.851 288.039H979.971L974.051 315.999H969.931L975.851 288.039ZM985.187 288.039H995.947C998.427 288.039 1000.4 288.639 1001.87 289.839C1003.33 291.039 1004.07 292.692 1004.07 294.799C1004.07 295.332 1004 295.972 1003.87 296.719C1003.31 299.546 1002 301.692 999.947 303.159C997.894 304.599 995.334 305.319 992.267 305.319H985.587L983.347 315.999H979.267L985.187 288.039ZM992.547 301.919C994.414 301.919 995.974 301.532 997.227 300.759C998.507 299.986 999.347 298.639 999.747 296.719C999.907 295.999 999.987 295.372 999.987 294.839C999.987 293.586 999.56 292.719 998.707 292.239C997.88 291.732 996.574 291.479 994.787 291.479H988.547L986.307 301.919H992.547ZM762.843 328.039H773.603C776.083 328.039 778.057 328.639 779.523 329.839C780.99 331.039 781.723 332.692 781.723 334.799C781.723 335.332 781.657 335.972 781.523 336.719C780.963 339.546 779.657 341.692 777.603 343.159C775.55 344.599 772.99 345.319 769.923 345.319H763.243L761.003 355.999H756.923L762.843 328.039ZM770.203 341.919C772.07 341.919 773.63 341.532 774.883 340.759C776.163 339.986 777.003 338.639 777.403 336.719C777.563 335.999 777.643 335.372 777.643 334.839C777.643 333.586 777.217 332.719 776.363 332.239C775.537 331.732 774.23 331.479 772.443 331.479H766.203L763.963 341.919H770.203ZM786.945 328.039H798.185C800.612 328.039 802.505 328.612 803.865 329.759C805.225 330.879 805.905 332.439 805.905 334.439C805.905 335.106 805.825 335.799 805.665 336.519C805.212 338.626 804.305 340.386 802.945 341.799C801.612 343.212 799.852 344.159 797.665 344.639L801.425 355.999H797.185L793.545 344.959H787.425L785.105 355.999H781.025L786.945 328.039ZM794.625 341.519C796.412 341.519 797.918 341.106 799.145 340.279C800.398 339.426 801.198 338.172 801.545 336.519C801.678 335.959 801.745 335.372 801.745 334.759C801.745 333.559 801.358 332.719 800.585 332.239C799.838 331.732 798.678 331.479 797.105 331.479H790.305L788.145 341.519H794.625ZM819.121 356.599C816.881 356.599 814.841 356.132 813.001 355.199C811.188 354.266 809.761 352.946 808.721 351.239C807.681 349.506 807.161 347.519 807.161 345.279C807.161 344.239 807.281 343.159 807.521 342.039C808.134 339.159 809.294 336.612 811.001 334.399C812.708 332.186 814.801 330.479 817.281 329.279C819.761 328.052 822.441 327.439 825.321 327.439C827.614 327.439 829.668 327.906 831.481 328.839C833.321 329.772 834.748 331.092 835.761 332.799C836.801 334.506 837.321 336.492 837.321 338.759C837.321 339.772 837.201 340.866 836.961 342.039C836.348 344.919 835.188 347.466 833.481 349.679C831.801 351.866 829.721 353.572 827.241 354.799C824.761 355.999 822.054 356.599 819.121 356.599ZM819.921 352.919C821.894 352.919 823.774 352.479 825.561 351.599C827.374 350.692 828.921 349.426 830.201 347.799C831.481 346.146 832.361 344.226 832.841 342.039C833.054 341.079 833.161 340.066 833.161 338.999C833.161 336.546 832.414 334.639 830.921 333.279C829.454 331.892 827.321 331.199 824.521 331.199C822.521 331.199 820.628 331.652 818.841 332.559C817.054 333.439 815.521 334.706 814.241 336.359C812.961 337.986 812.094 339.879 811.641 342.039C811.401 343.106 811.281 344.106 811.281 345.039C811.281 347.519 812.028 349.452 813.521 350.839C815.041 352.226 817.174 352.919 819.921 352.919ZM851.662 356.599C849.288 356.599 847.182 356.159 845.342 355.279C843.528 354.372 842.115 353.079 841.102 351.399C840.088 349.719 839.582 347.759 839.582 345.519C839.582 344.372 839.715 343.212 839.982 342.039C840.595 339.132 841.755 336.572 843.462 334.359C845.195 332.146 847.302 330.439 849.782 329.239C852.288 328.039 854.982 327.439 857.862 327.439C859.835 327.439 861.555 327.679 863.022 328.159C864.515 328.612 865.809 329.332 866.902 330.319L866.062 334.239C865.048 333.199 863.849 332.439 862.462 331.959C861.102 331.452 859.422 331.199 857.422 331.199C855.315 331.199 853.328 331.639 851.462 332.519C849.595 333.399 848.008 334.666 846.702 336.319C845.422 337.946 844.555 339.852 844.102 342.039C843.862 343.159 843.742 344.199 843.742 345.159C843.742 347.612 844.502 349.519 846.022 350.879C847.542 352.239 849.755 352.919 852.662 352.919C853.888 352.919 855.048 352.799 856.142 352.559C857.235 352.292 858.168 351.919 858.942 351.439L860.502 344.119H855.182L855.862 340.799H865.262L862.542 353.599C859.715 355.599 856.088 356.599 851.662 356.599ZM872.375 328.039H883.615C886.041 328.039 887.935 328.612 889.295 329.759C890.655 330.879 891.335 332.439 891.335 334.439C891.335 335.106 891.255 335.799 891.095 336.519C890.641 338.626 889.735 340.386 888.375 341.799C887.041 343.212 885.281 344.159 883.095 344.639L886.855 355.999H882.615L878.975 344.959H872.855L870.535 355.999H866.455L872.375 328.039ZM880.055 341.519C881.841 341.519 883.348 341.106 884.575 340.279C885.828 339.426 886.628 338.172 886.975 336.519C887.108 335.959 887.175 335.372 887.175 334.759C887.175 333.559 886.788 332.719 886.015 332.239C885.268 331.732 884.108 331.479 882.535 331.479H875.735L873.575 341.519H880.055ZM905.86 328.039H909.78L915.02 355.999H910.98L909.62 349.039H897.26L893.1 355.999H888.78L905.86 328.039ZM909.26 345.639L906.98 332.559L899.18 345.639H909.26ZM924.328 328.039H928.288L933.608 349.839L948.208 328.039H952.408L946.488 355.999H942.528L946.728 336.119L933.448 355.999H931.448L926.528 336.119L922.328 355.999H918.408L924.328 328.039Z" fill="black"/>
</svg>
